<svg xmlns="http://www.w3.org/2000/svg" viewBox="0 0 128 128" fill="none">
  <rect x="10" y="10" width="108" height="108" rx="28" fill="#000000" stroke="#FFFFFF" stroke-width="2"/>

  <path d="M39 34H73A12 12 0 0 1 85 46V66A12 12 0 0 1 73 78H61L49 90V78H39A12 12 0 0 1 27 66V46A12 12 0 0 1 39 34Z" fill="#FFFFFF"/>
  <path d="M89 50H55A12 12 0 0 0 43 62V82A12 12 0 0 0 55 94H67L79 106V94H89A12 12 0 0 0 101 82V62A12 12 0 0 0 89 50Z" fill="#000000" stroke="#FFFFFF" stroke-width="2"/>

  <path d="M60 57C66.6 57 72 62.4 72 69C72 75.6 66.6 81 60 81" stroke="#000000" stroke-width="5" stroke-linecap="round"/>
  <path d="M68 83C61.4 83 56 77.6 56 71C56 64.4 61.4 59 68 59" stroke="#FFFFFF" stroke-width="5" stroke-linecap="round"/>
</svg>
